<?xml version="1.0" encoding="iso-8859-1"?>
<?xml-stylesheet type="text/css" href="../../../sass/style.css" ?>
<svg class="logo-svg" width="615" height="150" viewBox="0 0 641 160" fill="none" xmlns="http://www.w3.org/2000/svg">
<g clip-path="url(#clip0_2_4)">
<path class="logo-path" d="M72.3813 0.313676C37.9811 3.11368 8.79608 29.1137 1.47475 63.4137C-1.53401 77.5137 0.170953 97.9137 5.58673 110.714C7.89345 116.114 7.99374 114.714 5.78731 107.814C-2.03547 82.6137 7.59257 49.3137 28.353 30.5137C60.3462 1.51368 106.681 3.81368 133.559 35.9137C138.574 41.9137 144.893 54.8137 146.798 63.1137C150.409 78.4137 148.002 97.3137 140.68 111.414C135.164 122.214 121.524 135.314 110.292 140.914C97.6549 147.114 91.0356 148.514 77.1953 147.814C53.3258 146.714 33.5682 136.414 25.8457 121.014C17.02 103.514 21.132 87.6137 39.4855 68.2137C48.1106 59.2137 42.4942 62.5137 32.9665 72.1137C-3.43956 108.714 23.9402 160.114 79.9032 160.114C103.472 160.114 123.229 151.714 138.975 134.914C146.297 127.114 151.211 119.314 155.223 109.114C159.435 98.3137 160.839 89.4137 160.237 75.5137C159.836 65.7137 159.234 62.0137 156.727 54.9137C144.09 18.6137 110.893 -2.88632 72.3813 0.313676Z" fill="#12B7B6"/>
<path class="logo-path" d="M84.4162 34.4136C76.8943 43.0136 72.8826 46.7136 60.1455 56.4136C47.8095 65.9136 43.8981 72.3136 43.8981 83.6136C43.8981 88.4136 44.4999 92.4136 46.1046 96.4136C50.1163 107.014 63.756 122.714 76.1923 131.114C79.1007 133.114 78.7999 132.614 74.4873 128.314C59.3432 113.214 50.016 95.3136 51.5204 84.3136C52.8242 74.8136 59.3432 67.0136 69.6733 62.7136C75.4902 60.3136 80.0034 56.4136 83.313 51.2136C86.2215 46.7136 92.6402 28.7136 92.0385 26.9136C91.8379 26.4136 88.4279 29.8136 84.4162 34.4136Z" fill="#12B7B6"/>
<path class="logo-path" d="M101.065 46.3137C96.7524 50.5137 90.434 55.7137 87.0241 57.8137L80.9062 61.6137L85.5197 62.3137C88.027 62.6137 90.5343 63.2137 91.0358 63.5137C92.7407 64.5137 103.271 52.3137 106.481 45.6137C108.085 42.0137 109.389 38.9137 109.189 38.8137C108.988 38.7137 105.277 42.1137 101.065 46.3137Z" fill="#12B7B6"/>
<path class="logo-path" d="M73.685 65.0137C65.2605 67.1137 59.0424 73.2137 56.5351 81.8137C55.131 86.6137 55.0307 88.4137 56.0336 94.0137C56.7356 97.6137 58.3403 102.614 59.6441 105.114L62.0511 109.614L61.4494 105.014C61.1485 102.314 61.3491 99.5137 62.0511 98.5137C63.054 96.7137 63.054 96.7137 63.1543 98.6137C63.1543 99.7137 63.9567 101.714 64.759 103.114C65.5614 104.514 66.0628 104.814 65.7619 103.814C64.9596 101.214 67.7678 96.4137 71.1777 94.6137C78.3987 90.9137 90.1329 93.8137 102.97 102.414C106.781 104.914 111.595 107.314 113.702 107.714L117.613 108.414L114.303 103.714C112.598 101.114 109.79 95.3137 108.085 90.8137C104.174 80.0137 101.265 75.1137 95.7493 70.3137C89.5312 64.9137 81.909 63.0137 73.685 65.0137ZM99.7609 89.9137C98.8583 90.8137 94.2449 85.5137 94.2449 83.5137C94.2449 82.6137 95.5487 83.5137 97.3539 85.6137C99.1592 87.6137 100.162 89.5137 99.7609 89.9137Z" fill="#12B7B6"/>
<path class="logo-path" d="M35.4735 81.6137C24.6419 100.014 28.2525 119.914 44.4998 131.414C47.4083 133.414 47.308 133.214 43.4969 128.614C31.9633 114.814 29.3557 98.0137 36.4764 82.5137C39.4852 75.9137 39.084 75.5137 35.4735 81.6137Z" fill="#12B7B6"/>
<path class="logo-path" d="M72.4815 101.114C71.278 101.614 69.5731 103.414 68.5701 105.214C66.0628 110.114 67.8681 114.714 74.9889 121.314C79.9032 125.814 93.3424 134.114 95.7494 134.114C96.1505 134.114 92.3394 131.314 87.1242 127.814C77.4962 121.414 71.1777 114.614 71.1777 110.714C71.1777 107.514 74.1865 105.114 78.0979 105.114C81.909 105.114 84.316 106.214 89.9324 110.814C96.7523 116.214 102.77 118.514 110.492 118.414C114.103 118.314 117.814 117.914 118.716 117.414C119.619 116.914 118.115 116.614 114.504 116.614C106.982 116.614 100.263 113.914 94.1447 108.514C85.6198 101.014 78.6997 98.6137 72.4815 101.114Z" fill="#12B7B6"/>
<path class="logo-path" d="M118.315 108.614C118.315 110.714 120.923 115.014 122.427 115.414C125.336 116.214 132.055 114.214 130.25 113.014C129.448 112.514 128.144 112.114 127.341 112.114C126.439 112.114 124.132 111.214 122.026 110.214C120.02 109.214 118.315 108.414 118.315 108.614Z" fill="#12B7B6"/>
<path class="logo-path" d="M178.904 30.2H220.808V44.6H194.744V72.68H215.192V87.08H194.744V131H178.904V30.2ZM251.3 132.44C243.524 132.44 237.572 130.232 233.444 125.816C229.316 121.4 227.252 115.16 227.252 107.096V54.104C227.252 46.04 229.316 39.8 233.444 35.384C237.572 30.968 243.524 28.76 251.3 28.76C259.076 28.76 265.028 30.968 269.156 35.384C273.284 39.8 275.348 46.04 275.348 54.104V107.096C275.348 115.16 273.284 121.4 269.156 125.816C265.028 130.232 259.076 132.44 251.3 132.44ZM251.3 118.04C256.772 118.04 259.508 114.728 259.508 108.104V53.096C259.508 46.472 256.772 43.16 251.3 43.16C245.828 43.16 243.092 46.472 243.092 53.096V108.104C243.092 114.728 245.828 118.04 251.3 118.04ZM297.778 79.448L280.354 30.2H297.058L307.714 62.744H308.002L318.946 30.2H333.922L316.498 79.448L334.786 131H318.082L306.562 95.864H306.274L294.466 131H279.49L297.778 79.448ZM387.693 132.44C380.109 132.44 374.301 130.28 370.269 125.96C366.333 121.64 364.365 115.544 364.365 107.672V53.528C364.365 45.656 366.333 39.56 370.269 35.24C374.301 30.92 380.109 28.76 387.693 28.76C395.277 28.76 401.037 30.92 404.973 35.24C409.005 39.56 411.021 45.656 411.021 53.528V64.184H396.045V52.52C396.045 46.28 393.405 43.16 388.125 43.16C382.845 43.16 380.205 46.28 380.205 52.52V108.824C380.205 114.968 382.845 118.04 388.125 118.04C393.405 118.04 396.045 114.968 396.045 108.824V93.416H411.021V107.672C411.021 115.544 409.005 121.64 404.973 125.96C401.037 130.28 395.277 132.44 387.693 132.44ZM432.738 30.2H454.194L470.61 131H454.77L451.89 110.984V111.272H433.89L431.01 131H416.322L432.738 30.2ZM450.018 97.592L442.962 47.768H442.674L435.762 97.592H450.018ZM478.295 30.2H501.767C509.927 30.2 515.879 32.12 519.623 35.96C523.367 39.704 525.239 45.512 525.239 53.384V59.576C525.239 70.04 521.783 76.664 514.871 79.448V79.736C518.711 80.888 521.399 83.24 522.935 86.792C524.567 90.344 525.383 95.096 525.383 101.048V118.76C525.383 121.64 525.479 123.992 525.671 125.816C525.863 127.544 526.343 129.272 527.111 131H510.983C510.407 129.368 510.023 127.832 509.831 126.392C509.639 124.952 509.543 122.36 509.543 118.616V100.184C509.543 95.576 508.775 92.36 507.239 90.536C505.799 88.712 503.255 87.8 499.607 87.8H494.135V131H478.295V30.2ZM499.895 73.4C503.063 73.4 505.415 72.584 506.951 70.952C508.583 69.32 509.399 66.584 509.399 62.744V54.968C509.399 51.32 508.727 48.68 507.383 47.048C506.135 45.416 504.119 44.6 501.335 44.6H494.135V73.4H499.895ZM558.837 132.44C551.157 132.44 545.301 130.28 541.269 125.96C537.237 121.544 535.221 115.256 535.221 107.096V54.104C535.221 45.944 537.237 39.704 541.269 35.384C545.301 30.968 551.157 28.76 558.837 28.76C566.517 28.76 572.373 30.968 576.405 35.384C580.437 39.704 582.453 45.944 582.453 54.104V62.744H567.477V53.096C567.477 46.472 564.741 43.16 559.269 43.16C553.797 43.16 551.061 46.472 551.061 53.096V108.248C551.061 114.776 553.797 118.04 559.269 118.04C564.741 118.04 567.477 114.776 567.477 108.248V88.52H559.557V74.12H582.453V107.096C582.453 115.256 580.437 121.544 576.405 125.96C572.373 130.28 566.517 132.44 558.837 132.44ZM615.519 132.44C607.743 132.44 601.791 130.232 597.663 125.816C593.535 121.4 591.471 115.16 591.471 107.096V54.104C591.471 46.04 593.535 39.8 597.663 35.384C601.791 30.968 607.743 28.76 615.519 28.76C623.295 28.76 629.247 30.968 633.375 35.384C637.503 39.8 639.567 46.04 639.567 54.104V107.096C639.567 115.16 637.503 121.4 633.375 125.816C629.247 130.232 623.295 132.44 615.519 132.44ZM615.519 118.04C620.991 118.04 623.727 114.728 623.727 108.104V53.096C623.727 46.472 620.991 43.16 615.519 43.16C610.047 43.16 607.311 46.472 607.311 53.096V108.104C607.311 114.728 610.047 118.04 615.519 118.04Z" fill="#12B7B6"/>
</g>
<defs>
<clipPath id="clip0_2_4">
<rect width="641" height="160" fill="white"/>
</clipPath>
</defs>
</svg>
