<svg width="161" height="161" viewBox="0 0 161 161" fill="none" xmlns="http://www.w3.org/2000/svg">
<path d="M72.3813 0.313645C37.9811 3.11365 8.79608 29.1136 1.47475 63.4136C-1.53401 77.5136 0.170953 97.9136 5.58673 110.714C7.89345 116.114 7.99374 114.714 5.78731 107.814C-2.03547 82.6136 7.59257 49.3136 28.353 30.5136C60.3462 1.51365 106.681 3.81365 133.559 35.9136C138.574 41.9136 144.893 54.8136 146.798 63.1136C150.409 78.4136 148.002 97.3136 140.68 111.414C135.164 122.214 121.524 135.314 110.292 140.914C97.6549 147.114 91.0356 148.514 77.1953 147.814C53.3258 146.714 33.5682 136.414 25.8457 121.014C17.02 103.514 21.132 87.6136 39.4855 68.2136C48.1106 59.2136 42.4942 62.5136 32.9665 72.1136C-3.43956 108.714 23.9402 160.114 79.9032 160.114C103.472 160.114 123.229 151.714 138.975 134.914C146.297 127.114 151.211 119.314 155.223 109.114C159.435 98.3136 160.839 89.4136 160.237 75.5136C159.836 65.7136 159.234 62.0136 156.727 54.9136C144.09 18.6136 110.893 -2.88635 72.3813 0.313645Z" fill="#12B7B6"/>
<path d="M84.4162 34.4136C76.8943 43.0136 72.8826 46.7136 60.1454 56.4136C47.8095 65.9136 43.8981 72.3136 43.8981 83.6136C43.8981 88.4136 44.4998 92.4136 46.1045 96.4136C50.1162 107.014 63.756 122.714 76.1922 131.114C79.1007 133.114 78.7998 132.614 74.4872 128.314C59.3431 113.214 50.0159 95.3136 51.5203 84.3136C52.8241 74.8136 59.3431 67.0136 69.6732 62.7136C75.4902 60.3136 80.0033 56.4136 83.313 51.2136C86.2214 46.7136 92.6402 28.7136 92.0384 26.9136C91.8378 26.4136 88.4279 29.8136 84.4162 34.4136Z" fill="#12B7B6"/>
<path d="M101.065 46.3137C96.7524 50.5137 90.434 55.7137 87.0241 57.8137L80.9062 61.6137L85.5197 62.3137C88.027 62.6137 90.5343 63.2137 91.0358 63.5137C92.7407 64.5137 103.271 52.3137 106.481 45.6137C108.085 42.0137 109.389 38.9137 109.189 38.8137C108.988 38.7137 105.277 42.1137 101.065 46.3137Z" fill="#12B7B6"/>
<path d="M73.685 65.0136C65.2605 67.1136 59.0424 73.2136 56.5351 81.8136C55.131 86.6136 55.0307 88.4136 56.0336 94.0136C56.7356 97.6136 58.3403 102.614 59.6441 105.114L62.0511 109.614L61.4494 105.014C61.1485 102.314 61.3491 99.5136 62.0511 98.5136C63.054 96.7136 63.054 96.7136 63.1543 98.6136C63.1543 99.7136 63.9567 101.714 64.759 103.114C65.5614 104.514 66.0628 104.814 65.7619 103.814C64.9596 101.214 67.7678 96.4136 71.1777 94.6136C78.3987 90.9136 90.1329 93.8136 102.97 102.414C106.781 104.914 111.595 107.314 113.702 107.714L117.613 108.414L114.303 103.714C112.598 101.114 109.79 95.3136 108.085 90.8136C104.174 80.0136 101.265 75.1136 95.7493 70.3136C89.5312 64.9136 81.909 63.0136 73.685 65.0136ZM99.7609 89.9136C98.8583 90.8136 94.2449 85.5136 94.2449 83.5136C94.2449 82.6136 95.5487 83.5136 97.3539 85.6136C99.1592 87.6136 100.162 89.5136 99.7609 89.9136Z" fill="#12B7B6"/>
<path d="M35.4734 81.6137C24.6419 100.014 28.2524 119.914 44.4997 131.414C47.4082 133.414 47.3079 133.214 43.4968 128.614C31.9632 114.814 29.3556 98.0137 36.4764 82.5137C39.4851 75.9137 39.084 75.5137 35.4734 81.6137Z" fill="#12B7B6"/>
<path d="M72.4816 101.114C71.2781 101.614 69.5731 103.414 68.5702 105.214C66.0629 110.114 67.8682 114.714 74.9889 121.314C79.9032 125.814 93.3424 134.114 95.7494 134.114C96.1506 134.114 92.3395 131.314 87.1243 127.814C77.4962 121.414 71.1778 114.614 71.1778 110.714C71.1778 107.514 74.1866 105.114 78.098 105.114C81.9091 105.114 84.3161 106.214 89.9325 110.814C96.7524 116.214 102.77 118.514 110.492 118.414C114.103 118.314 117.814 117.914 118.716 117.414C119.619 116.914 118.115 116.614 114.504 116.614C106.982 116.614 100.263 113.914 94.1448 108.514C85.6199 101.014 78.6997 98.6136 72.4816 101.114Z" fill="#12B7B6"/>
<path d="M118.315 108.614C118.315 110.714 120.923 115.014 122.427 115.414C125.336 116.214 132.055 114.214 130.25 113.014C129.448 112.514 128.144 112.114 127.341 112.114C126.439 112.114 124.132 111.214 122.026 110.214C120.02 109.214 118.315 108.414 118.315 108.614Z" fill="#12B7B6"/>
</svg>
