<svg width="264" height="264" viewBox="0 0 264 264" fill="none" xmlns="http://www.w3.org/2000/svg">
<g filter="url(#filter0_ii_20_225)">
<rect width="264" height="264" rx="132" fill="#EDEDED"/>
</g>
<path d="M92.2455 82.9937H134.747V139.117H92.2455V82.9937Z" fill="#D3F3F2" stroke="black" stroke-width="3"/>
<path d="M151.151 98.6991L150.757 99.4192L151.151 100.139L166.367 127.944H146.728H122.549V70.8946H146.728H166.367L151.151 98.6991Z" fill="white" stroke="black" stroke-width="3"/>
<path d="M79.1856 73.7685L79.1834 73.7685C78.329 73.7697 77.4827 73.6025 76.6932 73.2765C75.9036 72.9505 75.1864 72.4721 74.5825 71.8688C73.9785 71.2655 73.4998 70.5492 73.1736 69.7609C72.8474 68.9727 72.6801 68.1279 72.6814 67.2751L71.1814 67.2729H72.6814C72.6814 65.9885 73.0627 64.7329 73.7772 63.6647C74.4917 62.5965 75.5074 61.7637 76.6961 61.2719C77.8847 60.7801 79.1928 60.6514 80.4548 60.9021C81.7168 61.1529 82.8758 61.7718 83.7853 62.6803C84.6948 63.5888 85.314 64.7462 85.5649 66.0059C85.8157 67.2656 85.687 68.5714 85.1949 69.7581C84.7028 70.9448 83.8694 71.9594 82.7997 72.6734C81.7301 73.3873 80.4723 73.7685 79.1856 73.7685Z" fill="#26C5BF" stroke="black" stroke-width="3"/>
<path d="M81.23 82.9937V204.5H77.1294V82.9937H81.23Z" fill="#D3F3F2" stroke="black" stroke-width="3"/>
<path d="M82.4695 82.9937H82.9904V204.5H82.4695V82.9937Z" fill="#283133" stroke="black" stroke-width="3"/>
<path d="M75.8903 83.2521V204.5H75.3694V81.235H82.9908V204.5H82.4699V83.2521V81.7521H80.9699H77.3903H75.8903V83.2521Z" fill="#323232" stroke="black" stroke-width="3"/>
<path d="M135.987 138.846V130.944H136.508V140.863H90.4855V81.235H119.549V81.7521H92.5064H91.0064V83.2521V138.846V140.346H92.5064H134.487H135.987V138.846Z" fill="#323232" stroke="black" stroke-width="3"/>
<path d="M169.337 129.691H120.789V69.1244H169.337L153.158 98.6875L152.764 99.4076L153.158 100.128L169.337 129.691ZM121.309 127.674V129.174H122.809H165.929H168.46L167.245 126.953L152.17 99.4076L167.245 71.8616L168.46 69.6415H165.929H122.809H121.309V71.1415V127.674Z" fill="#323232" stroke="black" stroke-width="3"/>
<path d="M156.562 140.1H172.657V140.617H156.562V140.1Z" fill="#323232" stroke="black" stroke-width="3"/>
<path d="M180.925 140.1H181.869V140.617H180.925V140.1Z" fill="#323232" stroke="black" stroke-width="3"/>
<path d="M188.671 92.9822H204.766V93.4993H188.671V92.9822Z" fill="#323232" stroke="black" stroke-width="3"/>
<path d="M213.035 92.9822H213.979V93.4993H213.035V92.9822Z" fill="#323232" stroke="black" stroke-width="3"/>
<path d="M172.053 110.791H199.838V111.308H172.053V110.791Z" fill="#323232" stroke="black" stroke-width="3"/>
<path d="M82.4695 82.9937H82.9904V204.5H82.4695V82.9937Z" fill="#323232" stroke="black" stroke-width="3"/>
<path d="M79.209 75.5269C77.5741 75.5269 75.976 75.0426 74.6168 74.1354C73.2577 73.2282 72.1985 71.939 71.5732 70.4309C70.9479 68.9229 70.7843 67.2635 71.1031 65.6627C71.4219 64.0619 72.2087 62.5912 73.3645 61.4367C74.5202 60.2822 75.9928 59.4958 77.5963 59.1772C79.1998 58.8586 80.8619 59.0221 82.3722 59.6471C83.8826 60.272 85.1733 61.3302 86.0812 62.6876C86.9892 64.0449 87.4737 65.6406 87.4737 67.2727C87.4737 68.3565 87.26 69.4296 86.8448 70.4309C86.4296 71.4322 85.8209 72.3422 85.0536 73.1087C84.2862 73.8753 83.3751 74.4834 82.3722 74.8984C81.3694 75.3133 80.2946 75.5269 79.209 75.5269ZM79.209 59.5474C77.6772 59.5474 76.1797 60.0013 74.9059 60.8519C73.6322 61.7025 72.6394 62.9116 72.0535 64.3265C71.4676 65.7413 71.3151 67.298 71.6152 68.7995C71.9153 70.3011 72.6546 71.6797 73.7391 72.7611C74.8237 73.8424 76.2047 74.5779 77.7075 74.8746C79.2103 75.1714 80.7674 75.0162 82.1819 74.4286C83.5965 73.8409 84.805 72.8472 85.6544 71.5729C86.5037 70.2986 86.9556 68.8011 86.9528 67.2699C86.9489 65.2199 86.131 63.2555 84.679 61.8078C83.227 60.3602 81.2597 59.5474 79.209 59.5474Z" fill="#323232" stroke="black" stroke-width="3"/>
<defs>
<filter id="filter0_ii_20_225" x="-20" y="-20" width="304" height="304" filterUnits="userSpaceOnUse" color-interpolation-filters="sRGB">
<feFlood flood-opacity="0" result="BackgroundImageFix"/>
<feBlend mode="normal" in="SourceGraphic" in2="BackgroundImageFix" result="shape"/>
<feColorMatrix in="SourceAlpha" type="matrix" values="0 0 0 0 0 0 0 0 0 0 0 0 0 0 0 0 0 0 127 0" result="hardAlpha"/>
<feOffset dx="20" dy="20"/>
<feGaussianBlur stdDeviation="25"/>
<feComposite in2="hardAlpha" operator="arithmetic" k2="-1" k3="1"/>
<feColorMatrix type="matrix" values="0 0 0 0 0.804167 0 0 0 0 0.804167 0 0 0 0 0.804167 0 0 0 1 0"/>
<feBlend mode="normal" in2="shape" result="effect1_innerShadow_20_225"/>
<feColorMatrix in="SourceAlpha" type="matrix" values="0 0 0 0 0 0 0 0 0 0 0 0 0 0 0 0 0 0 127 0" result="hardAlpha"/>
<feOffset dx="-20" dy="-20"/>
<feGaussianBlur stdDeviation="25"/>
<feComposite in2="hardAlpha" operator="arithmetic" k2="-1" k3="1"/>
<feColorMatrix type="matrix" values="0 0 0 0 1 0 0 0 0 1 0 0 0 0 1 0 0 0 1 0"/>
<feBlend mode="normal" in2="effect1_innerShadow_20_225" result="effect2_innerShadow_20_225"/>
</filter>
</defs>
</svg>
