<svg width="264" height="264" viewBox="0 0 264 264" fill="none" xmlns="http://www.w3.org/2000/svg">
<g filter="url(#filter0_ii_20_193)">
<rect width="264" height="264" rx="132" fill="#EDEDED"/>
</g>
<path d="M158.464 74.1322C159.893 75.2002 160.944 76.6753 161.494 78.3451L144.651 80.7636C144.707 79.0066 145.3 77.2953 146.37 75.8686C147.743 74.0366 149.788 72.8241 152.057 72.4984C154.325 72.1726 156.63 72.7604 158.464 74.1322Z" fill="#26C5BF" stroke="black" stroke-width="3"/>
<path d="M119.949 80.7714L103.008 78.3373C103.192 77.6974 103.45 77.0794 103.778 76.4961C104.345 75.4881 105.108 74.6041 106.024 73.8965C106.94 73.189 107.988 72.6724 109.108 72.3776C110.227 72.0827 111.395 72.0156 112.541 72.1803C113.687 72.3449 114.788 72.738 115.779 73.336C116.77 73.934 117.63 74.7247 118.309 75.6612C118.987 76.5976 119.471 77.6607 119.73 78.7873C119.88 79.4396 119.953 80.1054 119.949 80.7714Z" fill="#26C5BF" stroke="black" stroke-width="3"/>
<path d="M138.054 146.734C138.054 149.849 135.526 152.378 132.404 152.378C129.281 152.378 126.753 149.849 126.753 146.734C126.753 143.619 129.281 141.091 132.404 141.091C135.526 141.091 138.054 143.619 138.054 146.734Z" fill="white" stroke="black" stroke-width="3"/>
<path d="M137.575 114.265L137.354 140.49C135.898 139.283 134.06 138.615 132.153 138.615C130.288 138.615 128.489 139.254 127.048 140.41L127.232 114.276L127.232 114.276V114.265C127.232 112.896 127.776 111.583 128.746 110.614C129.716 109.645 131.031 109.101 132.404 109.101C133.776 109.101 135.091 109.645 136.061 110.614C137.029 111.581 137.574 112.892 137.575 114.26C137.575 114.262 137.575 114.263 137.575 114.265Z" fill="#26C5BF" stroke="black" stroke-width="3"/>
<path d="M92.8135 92.7961L92.8232 92.7613L92.8312 92.7262C93.6532 89.1338 95.6898 85.9339 98.5984 83.6661C101.507 81.3983 105.11 80.2013 108.799 80.2772L108.83 78.7775L108.804 80.2773C110.91 80.3139 112.989 80.7648 114.922 81.6041C116.854 82.4434 118.602 83.6547 120.065 85.1687C121.528 86.6827 122.679 88.4698 123.45 90.4278C124.222 92.3858 124.6 94.4764 124.563 96.5803L124.563 96.5826L123.629 154.315C122.836 152.658 121.88 151.071 120.77 149.581C116.99 144.505 111.631 140.827 105.534 139.12C99.437 137.414 92.9454 137.777 87.0766 140.152C83.6276 141.547 80.5082 143.592 77.8746 146.149L92.8135 92.7961Z" fill="white" stroke="black" stroke-width="3"/>
<mask id="path-7-inside-1_20_193" fill="white">
<path d="M74.3986 153C72.0658 156.992 70.7975 161.515 70.7148 166.136L74.3986 153Z"/>
</mask>
<path d="M74.3986 153C72.0658 156.992 70.7975 161.515 70.7148 166.136L74.3986 153Z" fill="white"/>
<path d="M74.3986 153L77.2871 153.81L71.8084 151.487L74.3986 153ZM70.7148 166.136L67.7153 166.082L73.6034 166.946L70.7148 166.136ZM71.8084 151.487C69.2166 155.922 67.8072 160.947 67.7153 166.082L73.7144 166.19C73.7878 162.082 74.9151 158.062 76.9887 154.514L71.8084 151.487ZM73.6034 166.946L77.2871 153.81L71.51 152.19L67.8263 165.326L73.6034 166.946Z" fill="black" mask="url(#path-7-inside-1_20_193)"/>
<path d="M171.805 92.727L171.813 92.7621L171.823 92.7968L186.79 146.144C184.158 143.589 181.04 141.546 177.594 140.152C171.725 137.777 165.233 137.414 159.136 139.12C153.039 140.827 147.68 144.505 143.9 149.581C142.79 151.071 141.834 152.658 141.041 154.315L140.108 96.5827L140.108 96.5803C140.032 92.3332 141.648 88.2297 144.602 85.1723C147.555 82.1149 151.603 80.354 155.856 80.2773L155.829 78.7775L155.857 80.2773C159.543 80.2082 163.14 81.4082 166.044 83.6754C168.948 85.9426 170.982 89.1389 171.805 92.727Z" fill="white" stroke="black" stroke-width="3"/>
<mask id="path-10-inside-2_20_193" fill="white">
<path d="M190.272 153C192.606 156.991 193.87 161.515 193.944 166.136L190.272 153Z"/>
</mask>
<path d="M190.272 153C192.606 156.991 193.87 161.515 193.944 166.136L190.272 153Z" fill="white"/>
<path d="M190.272 153L192.861 151.486L187.382 153.808L190.272 153ZM193.944 166.136L191.055 166.944L196.944 166.088L193.944 166.136ZM187.682 154.515C189.755 158.06 190.879 162.079 190.944 166.184L196.944 166.088C196.862 160.951 195.456 155.922 192.861 151.486L187.682 154.515ZM196.833 165.328L193.161 152.193L187.382 153.808L191.055 166.944L196.833 165.328Z" fill="black" mask="url(#path-10-inside-2_20_193)"/>
<path d="M192.443 166.478C192.443 180.497 181.066 191.864 167.028 191.864C152.99 191.864 141.613 180.497 141.613 166.478C141.613 152.459 152.99 141.091 167.028 141.091C181.066 141.091 192.443 152.459 192.443 166.478Z" fill="#D3F3F2" stroke="black" stroke-width="3"/>
<path d="M123.228 166.478C123.228 180.497 111.851 191.864 97.8125 191.864C83.7745 191.864 72.3972 180.497 72.3972 166.478C72.3972 152.459 83.7745 141.091 97.8125 141.091C111.851 141.091 123.228 152.459 123.228 166.478Z" fill="#D3F3F2" stroke="black" stroke-width="3"/>
<path d="M166.538 139.789H166.523L166.509 139.789C161.192 139.892 156.025 141.567 151.661 144.603C147.297 147.64 143.933 151.901 141.993 156.848C140.054 161.795 139.626 167.206 140.765 172.396C141.904 177.584 144.557 182.319 148.388 186.001C150.921 188.463 153.921 190.397 157.211 191.688C160.502 192.979 164.017 193.602 167.552 193.519C174.679 193.376 181.458 190.416 186.404 185.287C191.351 180.158 194.061 173.278 193.938 166.156L192.438 166.181L193.938 166.151C193.796 159.116 190.9 152.416 185.872 147.488C180.844 142.561 174.084 139.797 167.041 139.789H167.04H167.017H166.538ZM167.549 193.938H167.024C159.864 193.872 153.017 191.002 147.954 185.946C142.89 180.887 140.018 174.045 139.954 166.893C139.89 159.74 142.641 152.848 147.613 147.701C152.582 142.558 159.372 139.567 166.524 139.371H167.039C174.193 139.381 181.059 142.191 186.164 147.198C191.269 152.204 194.206 159.008 194.348 166.152C194.472 173.385 191.72 180.372 186.694 185.581C181.671 190.787 174.786 193.792 167.549 193.938Z" fill="#283133" stroke="black" stroke-width="3"/>
<path d="M138.625 96.7907V96.607V96.5917L138.625 96.5764C138.535 92.1852 140.081 87.917 142.962 84.5987C145.843 81.2803 149.855 79.1482 154.221 78.6158C158.587 78.0834 162.995 79.1888 166.591 81.7175C170.187 84.2461 172.715 88.0179 173.685 92.3017L173.688 92.3107L173.732 92.5019L173.327 92.5931L173.281 92.3911L173.279 92.3833C172.313 88.2149 169.837 84.5515 166.328 82.0985C162.82 79.6456 158.527 78.5765 154.276 79.0967C150.026 79.617 146.118 81.69 143.306 84.9168C140.497 88.1405 138.98 92.2881 139.046 96.562V96.7837L138.625 96.7907Z" fill="#283133" stroke="black" stroke-width="3"/>
<path d="M173.191 92.251L173.596 92.1344L191.321 153.518L190.916 153.635L173.191 92.251Z" fill="#283133" stroke="black" stroke-width="3"/>
<path d="M138.59 96.397L139.011 96.3902L140.17 167.683L139.749 167.69L138.59 96.397Z" fill="#283133" stroke="black" stroke-width="3"/>
<path d="M166.538 139.789H166.523L166.509 139.789C161.192 139.892 156.025 141.567 151.661 144.603C147.297 147.64 143.933 151.901 141.993 156.848C140.054 161.795 139.626 167.206 140.765 172.396C141.904 177.584 144.557 182.319 148.388 186.001C150.921 188.463 153.921 190.397 157.211 191.688C160.502 192.979 164.017 193.602 167.552 193.519C174.679 193.376 181.458 190.416 186.404 185.287C191.351 180.158 194.061 173.278 193.938 166.156L192.438 166.181L193.938 166.151C193.796 159.116 190.9 152.416 185.872 147.488C180.844 142.561 174.084 139.797 167.041 139.789H167.04H167.017H166.538ZM167.549 193.938H167.024C159.864 193.872 153.017 191.002 147.954 185.946C142.89 180.887 140.018 174.045 139.954 166.893C139.89 159.74 142.641 152.848 147.613 147.701C152.582 142.558 159.372 139.567 166.524 139.371H167.039C174.193 139.381 181.059 142.191 186.164 147.198C191.269 152.204 194.206 159.008 194.348 166.152C194.472 173.385 191.72 180.372 186.694 185.581C181.671 190.787 174.786 193.792 167.549 193.938Z" fill="#323232" stroke="black" stroke-width="3"/>
<path d="M138.625 96.7907V96.607V96.5917L138.625 96.5764C138.535 92.1852 140.081 87.917 142.962 84.5987C145.843 81.2803 149.855 79.1482 154.221 78.6158C158.587 78.0834 162.995 79.1888 166.591 81.7175C170.187 84.2461 172.715 88.0179 173.685 92.3017L173.688 92.3107L173.732 92.5019L173.327 92.5931L173.281 92.3911L173.279 92.3833C172.313 88.2149 169.837 84.5515 166.328 82.0985C162.82 79.6456 158.527 78.5765 154.276 79.0967C150.026 79.617 146.118 81.69 143.306 84.9168C140.497 88.1405 138.98 92.2881 139.046 96.562V96.7837L138.625 96.7907Z" fill="#323232" stroke="black" stroke-width="3"/>
<path d="M173.191 92.251L173.596 92.1344L191.321 153.518L190.916 153.635L173.191 92.251Z" fill="#323232" stroke="black" stroke-width="3"/>
<path d="M138.59 96.397L139.011 96.3902L140.17 167.683L139.749 167.69L138.59 96.397Z" fill="#283133" stroke="black" stroke-width="3"/>
<path d="M78.1586 185.581C73.4745 180.727 70.7651 174.328 70.5185 167.625H70.715V166.125V164.625H70.5747C70.9345 159.792 72.5774 155.132 75.3468 151.13C78.407 146.709 82.7066 143.288 87.706 141.298C92.7055 139.308 98.1821 138.838 103.448 139.945C108.715 141.053 113.536 143.689 117.308 147.524C121.079 151.358 123.633 156.22 124.648 161.499C125.664 166.777 125.096 172.238 123.017 177.195C120.937 182.153 117.438 186.387 112.958 189.365C108.478 192.344 103.217 193.935 97.8347 193.938H97.3029C90.0659 193.792 83.1817 190.787 78.1586 185.581ZM97.8356 139.789H97.8282L97.8208 139.789C90.7766 139.858 84.0406 142.686 79.0606 147.664C74.0805 152.642 71.254 159.373 71.1891 166.411C71.1243 173.45 73.8262 180.232 78.7137 185.301C83.6011 190.37 90.2839 193.32 97.3256 193.519L97.3332 193.52L97.3408 193.52C104.471 193.649 111.362 190.945 116.499 186.002C121.635 181.059 124.597 174.28 124.734 167.156L124.734 167.153C124.857 160.031 122.147 153.151 117.2 148.021C112.254 142.892 105.473 139.932 98.3446 139.789L98.3296 139.789H98.3146H97.8356Z" fill="#323232" stroke="black" stroke-width="3"/>
<path d="M91.5708 92.3911L91.5251 92.5931L91.1199 92.5019L91.1645 92.3107L91.1645 92.3107L91.1666 92.3017C92.1373 88.0179 94.6653 84.2461 98.2614 81.7175C101.857 79.1888 106.265 78.0834 110.631 78.6158C114.997 79.1482 119.009 81.2803 121.89 84.5987C124.772 87.917 126.317 92.1852 126.228 96.5764L126.227 96.5917V96.607V96.7907L125.806 96.7837V96.562C125.872 92.2881 124.355 88.1405 121.546 84.9168C118.734 81.69 114.826 79.617 110.576 79.0967C106.325 78.5765 102.032 79.6456 98.5239 82.0985C95.0153 84.5515 92.539 88.2149 91.5726 92.3833L91.5726 92.3833L91.5708 92.3911Z" fill="#323232" stroke="black" stroke-width="3"/>
<path d="M73.5016 153.484L91.2371 92.1031L91.6418 92.2198L73.9063 153.6L73.5016 153.484Z" fill="#323232" stroke="black" stroke-width="3"/>
<path d="M124.656 167.699L125.815 96.4058L126.236 96.4126L125.077 167.706L124.656 167.699Z" fill="#323232" stroke="black" stroke-width="3"/>
<path d="M81.3441 127.838L81.343 127.841L81.2677 128.041L80.8804 127.895L80.956 127.694C80.9562 127.693 80.9565 127.693 80.9567 127.692C82.879 122.628 86.5284 118.404 91.2628 115.763C95.9978 113.121 101.514 112.234 106.84 113.257C112.166 114.279 116.96 117.146 120.377 121.352C123.794 125.559 125.615 130.834 125.521 136.25L125.52 136.263V136.276V136.448L125.099 136.441V136.221C125.191 130.905 123.403 125.727 120.05 121.599C116.695 117.467 111.987 114.651 106.757 113.647C101.526 112.644 96.1094 113.517 91.4604 116.113C86.8114 118.709 83.2286 122.861 81.3441 127.838Z" fill="#323232" stroke="black" stroke-width="3"/>
<path d="M139.287 136.443V136.265V136.252L139.286 136.238C139.192 130.823 141.013 125.547 144.43 121.341C147.847 117.135 152.641 114.268 157.967 113.245C163.293 112.223 168.809 113.11 173.544 115.751C178.279 118.392 181.928 122.617 183.85 127.681C183.851 127.682 183.851 127.682 183.851 127.683L183.927 127.884L183.539 128.03L183.464 127.83L183.464 127.83L183.46 127.82C181.788 123.473 178.819 119.744 174.956 117.139C171.092 114.534 166.521 113.178 161.86 113.256L161.856 113.256C155.872 113.371 150.178 115.854 146.026 120.161C141.876 124.464 139.604 130.235 139.708 136.21V136.435L139.287 136.443Z" fill="#323232" stroke="black" stroke-width="3"/>
<path d="M132.152 153.574C130.795 153.574 129.469 153.172 128.341 152.419C127.213 151.666 126.334 150.596 125.815 149.344C125.296 148.092 125.16 146.715 125.425 145.387C125.689 144.058 126.342 142.837 127.301 141.879C128.261 140.921 129.483 140.268 130.814 140.004C132.145 139.739 133.524 139.875 134.778 140.394C136.032 140.913 137.103 141.791 137.857 142.917C138.61 144.044 139.012 145.368 139.012 146.722C139.009 148.538 138.286 150.279 137 151.563C135.714 152.848 133.971 153.571 132.152 153.574ZM132.153 140.29C130.88 140.29 129.635 140.667 128.576 141.374C127.517 142.08 126.692 143.085 126.205 144.261C125.717 145.436 125.59 146.73 125.838 147.978C126.087 149.226 126.7 150.373 127.601 151.272C128.501 152.172 129.648 152.784 130.897 153.032C132.145 153.28 133.44 153.153 134.616 152.666C135.792 152.18 136.798 151.355 137.505 150.297C138.213 149.24 138.591 147.996 138.591 146.723C138.591 145.016 137.912 143.38 136.705 142.173C135.497 140.967 133.86 140.29 132.153 140.29Z" fill="#323232" stroke="black" stroke-width="3"/>
<path d="M139.286 114.44H138.864V114.265C138.864 112.553 138.183 110.911 136.971 109.7C135.76 108.489 134.116 107.81 132.403 107.81C130.69 107.81 129.047 108.489 127.835 109.7C126.623 110.911 125.942 112.553 125.942 114.265V114.474H125.521V114.265C125.521 113.363 125.699 112.469 126.044 111.636C126.39 110.802 126.897 110.044 127.536 109.406C128.175 108.767 128.934 108.261 129.769 107.915C130.604 107.57 131.499 107.392 132.403 107.392C133.307 107.392 134.203 107.57 135.038 107.915C135.873 108.261 136.632 108.767 137.271 109.406C137.91 110.044 138.416 110.802 138.762 111.636C139.108 112.469 139.286 113.363 139.286 114.265V114.44Z" fill="#323232" stroke="black" stroke-width="3"/>
<path d="M139.582 129.296H139.161V129.076C139.161 127.285 138.449 125.567 137.181 124.301C135.914 123.035 134.195 122.324 132.403 122.324C130.612 122.324 128.893 123.035 127.626 124.301C126.358 125.567 125.646 127.285 125.646 129.076V129.285H125.224V129.076C125.224 127.175 125.98 125.351 127.326 124.007C128.673 122.662 130.499 121.906 132.403 121.906C134.308 121.906 136.134 122.662 137.48 124.007C138.826 125.351 139.582 127.175 139.582 129.076V129.296Z" fill="#323232" stroke="black" stroke-width="3"/>
<path d="M146.312 166.91V166.702H146.733V166.911L146.733 166.911L146.733 166.912C146.739 172.221 148.854 177.311 152.611 181.064C156.368 184.817 161.462 186.928 166.775 186.935H166.777H166.988V187.353H166.779C161.352 187.347 156.149 185.191 152.312 181.358C148.475 177.526 146.317 172.329 146.312 166.91Z" fill="#323232" stroke="black" stroke-width="3"/>
<path d="M77.0732 166.374V166.166H77.4947V166.375H77.4947L77.4947 166.378C77.5045 171.685 79.6195 176.773 83.3761 180.525C87.1326 184.278 92.2243 186.39 97.5361 186.4H97.5389H97.7496V186.817H97.5404C92.1134 186.812 86.9106 184.656 83.0736 180.823C79.2368 176.99 77.0791 171.794 77.0732 166.374Z" fill="#323232" stroke="black" stroke-width="3"/>
<path d="M121.304 83.2626L120.898 83.1795L120.939 82.9784C120.939 82.9777 120.94 82.977 120.94 82.9763C121.474 80.3994 120.961 77.7162 119.515 75.5169C118.069 73.317 115.807 71.7816 113.228 71.2478C110.649 70.7141 107.963 71.2255 105.762 72.67C103.56 74.1145 102.022 76.3738 101.488 78.9514L101.487 78.9558L101.445 79.1615L101.031 79.0772L101.073 78.8738C101.073 78.8736 101.073 78.8734 101.073 78.8732C101.624 76.1877 103.22 73.8303 105.511 72.3197C107.802 70.8091 110.601 70.2694 113.291 70.8197C115.981 71.3701 118.341 72.9652 119.853 75.2536C121.365 77.5415 121.905 80.3353 121.354 83.0206C121.354 83.021 121.354 83.0215 121.354 83.0219L121.304 83.2626Z" fill="#283133" stroke="black" stroke-width="3"/>
<path d="M143.072 82.6947L143.046 82.5098L143.044 82.4951L143.042 82.4805C142.824 81.1278 142.877 79.7453 143.199 78.4134C143.52 77.0814 144.104 75.8265 144.916 74.7217C145.727 73.617 146.751 72.6843 147.927 71.9781C149.103 71.2719 150.407 70.8063 151.765 70.6083C153.123 70.4104 154.507 70.4842 155.836 70.8253C157.165 71.1665 158.413 71.7681 159.507 72.5953C160.601 73.4225 161.519 74.4586 162.208 75.6433C162.898 76.828 163.344 78.1378 163.522 79.4963L163.524 79.5086L163.525 79.5209L163.555 79.7229L163.104 79.7861L163.072 79.5749C163.072 79.5742 163.072 79.5735 163.072 79.5728C162.692 76.9738 161.297 74.6313 159.193 73.0575C157.089 71.4833 154.446 70.8064 151.843 71.1745L151.843 71.1745L151.838 71.1753C149.234 71.5538 146.886 72.9485 145.31 75.0541C143.733 77.1595 143.057 79.8038 143.429 82.407C143.429 82.4072 143.429 82.4075 143.429 82.4078L143.461 82.6326L143.072 82.6947Z" fill="#323232" stroke="black" stroke-width="3"/>
<defs>
<filter id="filter0_ii_20_193" x="-20" y="-20" width="304" height="304" filterUnits="userSpaceOnUse" color-interpolation-filters="sRGB">
<feFlood flood-opacity="0" result="BackgroundImageFix"/>
<feBlend mode="normal" in="SourceGraphic" in2="BackgroundImageFix" result="shape"/>
<feColorMatrix in="SourceAlpha" type="matrix" values="0 0 0 0 0 0 0 0 0 0 0 0 0 0 0 0 0 0 127 0" result="hardAlpha"/>
<feOffset dx="20" dy="20"/>
<feGaussianBlur stdDeviation="25"/>
<feComposite in2="hardAlpha" operator="arithmetic" k2="-1" k3="1"/>
<feColorMatrix type="matrix" values="0 0 0 0 0.804167 0 0 0 0 0.804167 0 0 0 0 0.804167 0 0 0 1 0"/>
<feBlend mode="normal" in2="shape" result="effect1_innerShadow_20_193"/>
<feColorMatrix in="SourceAlpha" type="matrix" values="0 0 0 0 0 0 0 0 0 0 0 0 0 0 0 0 0 0 127 0" result="hardAlpha"/>
<feOffset dx="-20" dy="-20"/>
<feGaussianBlur stdDeviation="25"/>
<feComposite in2="hardAlpha" operator="arithmetic" k2="-1" k3="1"/>
<feColorMatrix type="matrix" values="0 0 0 0 1 0 0 0 0 1 0 0 0 0 1 0 0 0 1 0"/>
<feBlend mode="normal" in2="effect1_innerShadow_20_193" result="effect2_innerShadow_20_193"/>
</filter>
</defs>
</svg>
