<svg width="264" height="264" viewBox="0 0 264 264" fill="none" xmlns="http://www.w3.org/2000/svg">
<g filter="url(#filter0_ii_19_2)">
<rect width="264" height="264" rx="132" fill="#EDEDED"/>
</g>
<rect x="80" y="77" width="103" height="106" rx="18" fill="white"/>
<ellipse cx="99.731" cy="161.931" rx="6.00436" ry="5.82084" fill="#26C5BF"/>
<ellipse cx="162.176" cy="161.931" rx="6.00436" ry="5.82084" fill="#26C5BF"/>
<rect x="80.517" y="99.0661" width="49.2358" height="39.5817" fill="#D3F3F2"/>
<rect x="134.556" y="99.0661" width="49.2358" height="39.5817" fill="#D3F3F2"/>
<path d="M107.047 187.61H106.519H96.0161C90.2425 187.603 84.7089 185.388 80.6289 181.453C76.5494 177.518 74.2564 172.185 74.25 166.624V93.997C74.25 90.1831 75.4075 86.868 77.7374 84.0333C80.0709 81.1943 83.5914 78.8242 88.3361 76.9269C97.8303 73.1304 112.167 71.25 131.502 71.25C150.838 71.25 165.173 73.1339 174.666 76.9322C179.41 78.8303 182.93 81.2009 185.263 84.0392C187.593 86.8733 188.75 90.1867 188.75 93.997V166.624C188.744 172.183 186.452 177.515 182.374 181.45C178.297 185.385 172.765 187.601 166.994 187.61H156.491H155.962L156.298 188.018L172.107 207.272C172.108 207.273 172.108 207.273 172.109 207.274C172.651 207.963 172.891 208.828 172.779 209.683C172.667 210.539 172.211 211.322 171.506 211.86C170.8 212.399 169.902 212.65 169.004 212.558C168.107 212.466 167.285 212.039 166.714 211.371C166.714 211.37 166.713 211.37 166.713 211.369L160.095 203.309L160.001 203.195L159.856 203.221C159.656 203.258 159.453 203.277 159.249 203.278H103.871H103.869C103.634 203.28 103.399 203.256 103.169 203.209L103.021 203.178L102.925 203.295L96.2969 211.369C96.2965 211.369 96.296 211.37 96.2956 211.37C95.7246 212.039 94.9029 212.466 94.0058 212.558C93.1081 212.65 92.2098 212.399 91.5041 211.86C90.7986 211.322 90.3426 210.539 90.2306 209.683C90.1188 208.828 90.3587 207.963 90.9012 207.274C90.9016 207.273 90.9021 207.273 90.9025 207.272L106.712 188.018L107.047 187.61ZM181.626 138.156H181.876V137.906V100.805V100.555H181.626H135.185H134.935V100.805V137.906V138.156H135.185H181.626ZM181.601 93.9425H181.861L181.851 93.6834C181.731 90.3711 179.898 87.7286 176.907 85.6379C173.921 83.5509 169.763 81.998 164.932 80.8525C155.269 78.5608 142.836 77.8815 131.498 77.8815C120.159 77.8815 107.726 78.5608 98.0628 80.8525C93.2325 81.998 89.0741 83.5509 86.0885 85.6379C83.0976 87.7286 81.2642 90.3711 81.1439 93.6834L81.1345 93.9425H81.3938H181.601ZM81.3694 100.555H81.1194V100.805V137.906V138.156H81.3694H127.81H128.06V137.906V100.805V100.555H127.81H81.3694ZM108.696 196.262L108.36 196.67H108.889H154.101H154.63L154.294 196.262L147.265 187.701L147.19 187.61H147.072H115.918H115.8L115.725 187.701L108.696 196.262ZM96.035 180.997H96.0353L167.004 180.983H167.004C170.949 180.979 174.734 179.466 177.526 176.772C180.319 174.078 181.891 170.424 181.895 166.61V166.61V145.005V144.755H181.645H81.3938H81.1438V145.005V166.624V166.625C81.1477 170.438 82.72 174.092 85.5128 176.786C88.3052 179.48 92.0897 180.993 96.035 180.997Z" fill="black" stroke="black" stroke-width="0.5"/>
<path d="M93.5753 152.158C95.5418 150.891 97.8544 150.215 100.221 150.216C103.392 150.221 106.429 151.439 108.669 153.599C110.907 155.76 112.165 158.686 112.169 161.737C112.169 164.013 111.469 166.239 110.156 168.134C108.844 170.028 106.977 171.506 104.792 172.379C102.606 173.252 100.201 173.48 97.8806 173.035C95.5601 172.589 93.43 171.49 91.7591 169.878C90.0882 168.265 88.9517 166.213 88.4917 163.979C88.0318 161.746 88.2687 159.431 89.173 157.328C90.0773 155.224 91.6088 153.424 93.5753 152.158ZM97.4022 165.814C98.2372 166.352 99.2181 166.639 100.221 166.639C101.564 166.639 102.854 166.125 103.807 165.207C104.76 164.288 105.298 163.04 105.3 161.737C105.301 160.764 105.002 159.813 104.444 159.005C103.885 158.198 103.092 157.569 102.165 157.198C101.238 156.827 100.219 156.729 99.2348 156.918C98.251 157.106 97.346 157.571 96.6347 158.257C95.9232 158.942 95.4375 159.817 95.2404 160.771C95.0433 161.725 95.1441 162.713 95.5295 163.612C95.9149 164.51 96.5671 165.276 97.4022 165.814Z" fill="black" stroke="black" stroke-width="0.5"/>
<path d="M172.711 155.342C174.023 157.236 174.722 159.461 174.722 161.736C174.718 164.786 173.461 167.712 171.222 169.872C168.982 172.032 165.944 173.249 162.774 173.252C160.409 173.252 158.098 172.576 156.133 171.309C154.168 170.043 152.638 168.244 151.734 166.14C150.831 164.037 150.595 161.724 151.055 159.492C151.516 157.26 152.652 155.208 154.322 153.597C155.993 151.986 158.122 150.888 160.441 150.443C162.761 149.998 165.165 150.226 167.349 151.099C169.534 151.971 171.399 153.449 172.711 155.342ZM159.956 165.814C160.791 166.353 161.771 166.639 162.774 166.639C164.117 166.639 165.407 166.125 166.36 165.207C167.313 164.288 167.852 163.041 167.853 161.737C167.854 160.764 167.556 159.813 166.997 159.006C166.439 158.198 165.645 157.569 164.718 157.198C163.792 156.827 162.772 156.73 161.788 156.918C160.804 157.106 159.899 157.571 159.188 158.257C158.477 158.942 157.991 159.817 157.794 160.771C157.597 161.725 157.697 162.714 158.083 163.612C158.468 164.51 159.12 165.276 159.956 165.814Z" fill="black" stroke="black" stroke-width="0.5"/>
<defs>
<filter id="filter0_ii_19_2" x="-20" y="-20" width="304" height="304" filterUnits="userSpaceOnUse" color-interpolation-filters="sRGB">
<feFlood flood-opacity="0" result="BackgroundImageFix"/>
<feBlend mode="normal" in="SourceGraphic" in2="BackgroundImageFix" result="shape"/>
<feColorMatrix in="SourceAlpha" type="matrix" values="0 0 0 0 0 0 0 0 0 0 0 0 0 0 0 0 0 0 127 0" result="hardAlpha"/>
<feOffset dx="20" dy="20"/>
<feGaussianBlur stdDeviation="25"/>
<feComposite in2="hardAlpha" operator="arithmetic" k2="-1" k3="1"/>
<feColorMatrix type="matrix" values="0 0 0 0 0.804167 0 0 0 0 0.804167 0 0 0 0 0.804167 0 0 0 1 0"/>
<feBlend mode="normal" in2="shape" result="effect1_innerShadow_19_2"/>
<feColorMatrix in="SourceAlpha" type="matrix" values="0 0 0 0 0 0 0 0 0 0 0 0 0 0 0 0 0 0 127 0" result="hardAlpha"/>
<feOffset dx="-20" dy="-20"/>
<feGaussianBlur stdDeviation="25"/>
<feComposite in2="hardAlpha" operator="arithmetic" k2="-1" k3="1"/>
<feColorMatrix type="matrix" values="0 0 0 0 1 0 0 0 0 1 0 0 0 0 1 0 0 0 1 0"/>
<feBlend mode="normal" in2="effect1_innerShadow_19_2" result="effect2_innerShadow_19_2"/>
</filter>
</defs>
</svg>
